HIERARCHY
ROOT Hips
{
  OFFSET -58.8022 91.0554 192.614
  CHANNELS 6 Xposition Yposition Zposition Zrotation Xrotation Yrotation
  JOINT Spine
  {
    OFFSET 0 8 0
    CHANNELS 6 Xposition Yposition Zposition Zrotation Xrotation Yrotation
    JOINT Spine1
    {
      OFFSET 0 8 0
      CHANNELS 6 Xposition Yposition Zposition Zrotation Xrotation Yrotation
      JOINT Spine2
      {
        OFFSET 0 8 0
        CHANNELS 6 Xposition Yposition Zposition Zrotation Xrotation Yrotation
        JOINT Spine3
        {
          OFFSET 0 8 0
          CHANNELS 6 Xposition Yposition Zposition Zrotation Xrotation Yrotation
          JOINT Neck
          {
            OFFSET 0 17 0
            CHANNELS 6 Xposition Yposition Zposition Zrotation Xrotation Yrotation
            JOINT Head
            {
              OFFSET 0 10.8 0
              CHANNELS 6 Xposition Yposition Zposition Zrotation Xrotation Yrotation
              End Site
              {
                OFFSET 0 20.25 0
              }
            }
          }
          JOINT LeftShoulder
          {
            OFFSET 5 17 0
            CHANNELS 6 Xposition Yposition Zposition Zrotation Xrotation Yrotation
            JOINT LeftShoulder2
            {
              OFFSET 6.45 0 0
              CHANNELS 6 Xposition Yposition Zposition Zrotation Xrotation Yrotation
              JOINT LeftArm
              {
                OFFSET 6.45 0 0
                CHANNELS 6 Xposition Yposition Zposition Zrotation Xrotation Yrotation
                JOINT LeftForeArm
                {
                  OFFSET 0 -32.4 -2
                  CHANNELS 6 Xposition Yposition Zposition Zrotation Xrotation Yrotation
                  JOINT LeftHand
                  {
                    OFFSET 0 -25.65 2
                    CHANNELS 6 Xposition Yposition Zposition Zrotation Xrotation Yrotation
                    JOINT LeftHandThumb1
                    {
                      OFFSET -0.5 -1.5 2.65
                      CHANNELS 6 Xposition Yposition Zposition Zrotation Xrotation Yrotation
                      JOINT LeftHandThumb2
                      {
                        OFFSET 0 -3.8 3.7
                        CHANNELS 6 Xposition Yposition Zposition Zrotation Xrotation Yrotation
                        JOINT LeftHandThumb3
                        {
                          OFFSET 0 -3 2.7
                          CHANNELS 6 Xposition Yposition Zposition Zrotation Xrotation Yrotation
                          End Site
                          {
                            OFFSET 0 -2.3 1.8
                          }
                        }
                      }
                    }
                    JOINT LeftHandIndex
                    {
                      OFFSET 0 -1.9 1.6
                      CHANNELS 6 Xposition Yposition Zposition Zrotation Xrotation Yrotation
                      JOINT LeftHandIndex1
                      {
                        OFFSET 0 -8.3 1.9
                        CHANNELS 6 Xposition Yposition Zposition Zrotation Xrotation Yrotation
                        JOINT LeftHandIndex2
                        {
                          OFFSET 0 -4.5 0
                          CHANNELS 6 Xposition Yposition Zposition Zrotation Xrotation Yrotation
                          JOINT LeftHandIndex3
                          {
                            OFFSET 0 -3.4 0
                            CHANNELS 6 Xposition Yposition Zposition Zrotation Xrotation Yrotation
                            End Site
                            {
                              OFFSET 0 -2.6 0
                            }
                          }
                        }
                      }
                    }
                    JOINT LeftHandMiddle
                    {
                      OFFSET -0.25 -2.2 0.4
                      CHANNELS 6 Xposition Yposition Zposition Zrotation Xrotation Yrotation
                      JOINT LeftHandMiddle1
                      {
                        OFFSET 0 -8.3 1
                        CHANNELS 6 Xposition Yposition Zposition Zrotation Xrotation Yrotation
                        JOINT LeftHandMiddle2
                        {
                          OFFSET 0 -4.65 0
                          CHANNELS 6 Xposition Yposition Zposition Zrotation Xrotation Yrotation
                          JOINT LeftHandMiddle3
                          {
                            OFFSET 0 -3.3 0
                            CHANNELS 6 Xposition Yposition Zposition Zrotation Xrotation Yrotation
                            End Site
                            {
                              OFFSET 0 -2.7 0
                            }
                          }
                        }
                      }
                    }
                    JOINT LeftHandRing
                    {
                      OFFSET -0.5 -2.15 -0.8
                      CHANNELS 6 Xposition Yposition Zposition Zrotation Xrotation Yrotation
                      JOINT LeftHandRing1
                      {
                        OFFSET 0 -7.75 -0.2
                        CHANNELS 6 Xposition Yposition Zposition Zrotation Xrotation Yrotation
                        JOINT LeftHandRing2
                        {
                          OFFSET 0 -3.8 0
                          CHANNELS 6 Xposition Yposition Zposition Zrotation Xrotation Yrotation
                          JOINT LeftHandRing3
                          {
                            OFFSET 0 -3.4 0
                            CHANNELS 6 Xposition Yposition Zposition Zrotation Xrotation Yrotation
                            End Site
                            {
                              OFFSET 0 -2.6 0
                            }
                          }
                        }
                      }
                    }
                    JOINT LeftHandPinky
                    {
                      OFFSET -0.75 -1.75 -1.85
                      CHANNELS 6 Xposition Yposition Zposition Zrotation Xrotation Yrotation
                      JOINT LeftHandPinky1
                      {
                        OFFSET 0 -7.15 -1
                        CHANNELS 6 Xposition Yposition Zposition Zrotation Xrotation Yrotation
                        JOINT LeftHandPinky2
                        {
                          OFFSET 0 -3 0
                          CHANNELS 6 Xposition Yposition Zposition Zrotation Xrotation Yrotation
                          JOINT LeftHandPinky3
                          {
                            OFFSET 0 -2.35 0
                            CHANNELS 6 Xposition Yposition Zposition Zrotation Xrotation Yrotation
                            End Site
                            {
                              OFFSET 0 -2.1 0
                            }
                          }
                        }
                      }
                    }
                  }
                }
              }
            }
          }
          JOINT RightShoulder
          {
            OFFSET -5 17 0
            CHANNELS 6 Xposition Yposition Zposition Zrotation Xrotation Yrotation
            JOINT RightShoulder2
            {
              OFFSET -6.45 0 0
              CHANNELS 6 Xposition Yposition Zposition Zrotation Xrotation Yrotation
              JOINT RightArm
              {
                OFFSET -6.45 0 0
                CHANNELS 6 Xposition Yposition Zposition Zrotation Xrotation Yrotation
                JOINT RightForeArm
                {
                  OFFSET 0 -32.4 -2
                  CHANNELS 6 Xposition Yposition Zposition Zrotation Xrotation Yrotation
                  JOINT RightHand
                  {
                    OFFSET 0 -25.65 2
                    CHANNELS 6 Xposition Yposition Zposition Zrotation Xrotation Yrotation
                    JOINT RightHandThumb1
                    {
                      OFFSET 0.5 -1.5 2.65
                      CHANNELS 6 Xposition Yposition Zposition Zrotation Xrotation Yrotation
                      JOINT RightHandThumb2
                      {
                        OFFSET 0 -3.8 3.7
                        CHANNELS 6 Xposition Yposition Zposition Zrotation Xrotation Yrotation
                        JOINT RightHandThumb3
                        {
                          OFFSET 0 -3 2.7
                          CHANNELS 6 Xposition Yposition Zposition Zrotation Xrotation Yrotation
                          End Site
                          {
                            OFFSET 0 -2.3 1.8
                          }
                        }
                      }
                    }
                    JOINT RightHandIndex
                    {
                      OFFSET 0 -1.9 1.6
                      CHANNELS 6 Xposition Yposition Zposition Zrotation Xrotation Yrotation
                      JOINT RightHandIndex1
                      {
                        OFFSET 0 -8.3 1.9
                        CHANNELS 6 Xposition Yposition Zposition Zrotation Xrotation Yrotation
                        JOINT RightHandIndex2
                        {
                          OFFSET 0 -4.5 0
                          CHANNELS 6 Xposition Yposition Zposition Zrotation Xrotation Yrotation
                          JOINT RightHandIndex3
                          {
                            OFFSET 0 -3.4 0
                            CHANNELS 6 Xposition Yposition Zposition Zrotation Xrotation Yrotation
                            End Site
                            {
                              OFFSET 0 -2.6 0
                            }
                          }
                        }
                      }
                    }
                    JOINT RightHandMiddle
                    {
                      OFFSET 0.25 -2.2 0.4
                      CHANNELS 6 Xposition Yposition Zposition Zrotation Xrotation Yrotation
                      JOINT RightHandMiddle1
                      {
                        OFFSET 0 -8.3 1
                        CHANNELS 6 Xposition Yposition Zposition Zrotation Xrotation Yrotation
                        JOINT RightHandMiddle2
                        {
                          OFFSET 0 -4.65 0
                          CHANNELS 6 Xposition Yposition Zposition Zrotation Xrotation Yrotation
                          JOINT RightHandMiddle3
                          {
                            OFFSET 0 -3.3 0
                            CHANNELS 6 Xposition Yposition Zposition Zrotation Xrotation Yrotation
                            End Site
                            {
                              OFFSET 0 -2.7 0
                            }
                          }
                        }
                      }
                    }
                    JOINT RightHandRing
                    {
                      OFFSET 0.5 -2.15 -0.8
                      CHANNELS 6 Xposition Yposition Zposition Zrotation Xrotation Yrotation
                      JOINT RightHandRing1
                      {
                        OFFSET 0 -7.75 -0.2
                        CHANNELS 6 Xposition Yposition Zposition Zrotation Xrotation Yrotation
                        JOINT RightHandRing2
                        {
                          OFFSET 0 -3.8 0
                          CHANNELS 6 Xposition Yposition Zposition Zrotation Xrotation Yrotation
                          JOINT RightHandRing3
                          {
                            OFFSET 0 -3.4 0
                            CHANNELS 6 Xposition Yposition Zposition Zrotation Xrotation Yrotation
                            End Site
                            {
                              OFFSET 0 -2.6 0
                            }
                          }
                        }
                      }
                    }
                    JOINT RightHandPinky
                    {
                      OFFSET 0.75 -1.75 -1.85
                      CHANNELS 6 Xposition Yposition Zposition Zrotation Xrotation Yrotation
                      JOINT RightHandPinky1
                      {
                        OFFSET 0 -7.15 -1
                        CHANNELS 6 Xposition Yposition Zposition Zrotation Xrotation Yrotation
                        JOINT RightHandPinky2
                        {
                          OFFSET 0 -3 0
                          CHANNELS 6 Xposition Yposition Zposition Zrotation Xrotation Yrotation
                          JOINT RightHandPinky3
                          {
                            OFFSET 0 -2.35 0
                            CHANNELS 6 Xposition Yposition Zposition Zrotation Xrotation Yrotation
                            End Site
                            {
                              OFFSET 0 -2.1 0
                            }
                          }
                        }
                      }
                    }
                  }
                }
              }
            }
          }
        }
      }
    }
  }
  JOINT LeftUpLeg
  {
    OFFSET 8 0 0
    CHANNELS 6 Xposition Yposition Zposition Zrotation Xrotation Yrotation
    JOINT LeftLeg
    {
      OFFSET 0 -45 -1
      CHANNELS 6 Xposition Yposition Zposition Zrotation Xrotation Yrotation
      JOINT LeftFoot
      {
        OFFSET 0 -41 -2
        CHANNELS 6 Xposition Yposition Zposition Zrotation Xrotation Yrotation
        JOINT LeftToeBase
        {
          OFFSET 0 -7.5 12.5
          CHANNELS 6 Xposition Yposition Zposition Zrotation Xrotation Yrotation
          JOINT LeftFootToe
          {
            OFFSET 0 0 4
            CHANNELS 6 Xposition Yposition Zposition Zrotation Xrotation Yrotation
            End Site
            {
              OFFSET 0 0 0
            }
          }
        }
      }
    }
  }
  JOINT RightUpLeg
  {
    OFFSET -8 0 0
    CHANNELS 6 Xposition Yposition Zposition Zrotation Xrotation Yrotation
    JOINT RightLeg
    {
      OFFSET 0 -45 -1
      CHANNELS 6 Xposition Yposition Zposition Zrotation Xrotation Yrotation
      JOINT RightFoot
      {
        OFFSET 0 -41 -2
        CHANNELS 6 Xposition Yposition Zposition Zrotation Xrotation Yrotation
        JOINT RightToeBase
        {
          OFFSET 0 -7.5 12.5
          CHANNELS 6 Xposition Yposition Zposition Zrotation Xrotation Yrotation
          JOINT RightFootToe
          {
            OFFSET 0 0 4
            CHANNELS 6 Xposition Yposition Zposition Zrotation Xrotation Yrotation
            End Site
            {
              OFFSET 0 0 0
            }
          }
        }
      }
    }
  }
}
MOTION
Frames:	3
Frame Time:	0.0111111
-59.6978 89.885 191.641 -11.4516 11.153 38.3311 0 8 2.84217e-14 -2.30061 11.7788 -110.507 2.84217e-14 8 2.84217e-14 -12.3835 -4.51233 96.4195 -2.84217e-14 8 0 -0.898663 1.89252 26.3981 0 8 0 -0.625741 1.73183 7.95684 0 17 0 0.0295759 2.63999 -1.00478 2.84217e-14 10.8 1.42109e-14 0.141774 6.16191 -2.35263 5 17 0 -5.21889 -2.22538 1.5698 6.45 0 1.42109e-14 0.511244 5.49576 -1.33983 6.45 0 -1.42109e-14 -15.2482 -65.7184 -24.9214 2.84217e-14 -32.4 -2 2.71667 -52.5843 16.8017 2.84217e-14 -25.65 2 41.4668 -12.0785 -11.9835 -0.5 -1.5 2.65 -5.08946 -18.724 -5.43701 2.84217e-14 -3.8 3.7 -0.0186044 33.8822 0.00689799 0 -3 2.7 0.00480373 33.269 -0.0149258 0 -1.9 1.6 1.98785e-16 -4.47266e-16 -0 2.84217e-14 -8.3 1.9 -38.785 5.45991 2.40106 2.84217e-14 -4.5 -2.84217e-14 -20.2526 0.0125435 0.000741697 0 -3.4 0 -16.053 0.0137858 -0.000649331 -0.25 -2.2 0.4 1.98785e-16 -2.13694e-15 -0 0 -8.3 1 -39.6371 3.12182 2.18959 0 -4.65 0 -11.3888 0.0199683 0.000824461 2.84217e-14 -3.3 2.84217e-14 -9.86859 -0.00634736 0.00322186 -0.5 -2.15 -0.8 1.98785e-16 -2.18663e-15 -0 0 -7.75 -0.2 -34.731 3.36238 2.5032 -2.84217e-14 -3.8 0 -29.769 0.0096377 0.00815496 0 -3.4 2.84217e-14 -21.9559 0.00322752 0.00232645 -0.75 -1.75 -1.85 1.98785e-16 -2.13694e-15 -0 0 -7.15 -1 -57.9874 0.933655 4.6025 1.42109e-14 -3 0 -0.000338077 -1.59028e-15 -3.18055e-15 1.42109e-14 -2.35 2.84217e-14 3.18055e-15 0 -1.59028e-15 -5 17 0 -2.90726 -3.17133 -4.16845 -6.45 0 0 2.14075 6.33908 -0.213808 -6.45 0 0 -9.41684 -72.4069 11.4629 0 -32.4 -2 15.0046 -48.3647 -8.41642 0 -25.65 2 -27.3668 -7.63517 3.65991 0.5 -1.5 2.65 3.93871 -21.4294 1.06762 2.84217e-14 -3.8 3.7 0.236223 29.3616 -0.0451433 0 -3 2.7 0.0451078 16.7507 -0.0369305 0 -1.9 1.6 6.36111e-15 -1.59028e-15 -1.59028e-15 0 -8.3 1.9 23.4829 7.73791 -1.81414 0 -4.5 0 15.0041 -0.00361518 0.00543069 0 -3.4 0 12.5048 -0.004579 -0.000333855 0.25 -2.2 0.4 6.36111e-15 -1.59028e-15 -1.59028e-15 0 -8.3 1 20.5078 6.8165 -1.46828 0 -4.65 0 20.8746 0.00791144 -0.000520582 -2.84217e-14 -3.3 0 16.4564 0.00967064 -0.00289147 0.5 -2.15 -0.8 6.36111e-15 -1.59028e-15 -1.59028e-15 -2.84217e-14 -7.75 -0.2 15.0299 3.60653 -0.713892 0 -3.8 0 23.3271 0.0168151 0.0039906 -2.84217e-14 -3.4 0 18.0162 0.0098722 0.00335611 0.75 -1.75 -1.85 6.36111e-15 -1.59028e-15 -1.59028e-15 0 -7.15 -1 11.0422 1.86372 -0.382758 0 -3 0 16.2552 0.00348242 0.00471809 -2.84217e-14 -2.35 0 13.3786 0.00121958 -0.00125133 8 0 1.42109e-14 21.2096 -30.3475 27.394 -2.84217e-14 -45 -1 -0.068935 23.7427 0.453403 0 -41 -2 -9.97528 -3.19077 -17.6839 0 -7.5 12.5 6.06643e-21 -1.24513e-17 -0 2.84217e-14 0 4 3.78062 2.71881 0.00122589 -8 0 1.42109e-14 -3.23621 -37.8944 -0.0690718 0 -45 -1 -0.201838 22.6693 1.26857 0 -41 -2 5.44778 -0.723474 2.32476 2.84217e-14 -7.5 12.5 7.58476e-22 -3.11532e-09 3.18055e-15 0 1.35525e-20 4 -5.12441 -1.69887 0.00668369 
-59.4332 90.0698 191.875 -11.1415 10.8347 38.2075 0 8 -1.42109e-14 -2.35103 11.3272 -110.453 1.42109e-14 8 0 -12.1447 -4.22406 96.4665 0 8 1.42109e-14 -0.887547 1.83581 26.4078 2.84217e-14 8 0 -0.627175 1.69682 7.98954 0 17 0 0.0617923 2.91692 -0.992396 0 10.8 1.42109e-14 0.22426 6.80805 -2.32795 5 17 0 -5.17838 -2.18294 1.41524 6.45 0 2.84217e-14 0.503555 5.64264 -1.29995 6.45 -2.84217e-14 0 -14.3134 -65.4731 -23.7648 -2.84217e-14 -32.4 -2 2.31671 -52.4168 16.3818 0 -25.65 2 41.5921 -12.0965 -12.0666 -0.5 -1.5 2.65 -5.1103 -18.7346 -5.44905 2.84217e-14 -3.8 3.7 -0.0191421 33.8558 0.00689585 0 -3 2.7 0.00479884 33.2533 -0.0149231 2.84217e-14 -1.9 1.6 -1.98785e-16 3.47873e-16 3.18055e-15 2.84217e-14 -8.3 1.9 -38.7369 5.4432 2.39145 -2.84217e-14 -4.5 -2.84217e-14 -20.3411 0.0125435 0.000741697 0 -3.4 0 -16.1109 0.0137858 -0.000649331 -0.25 -2.2 0.4 -1.98785e-16 -1.3418e-15 3.18055e-15 0 -8.3 1 -39.6243 3.13142 2.18828 0 -4.65 0 -11.3745 0.0203734 0.000824461 0 -3.3 -2.84217e-14 -9.85775 -0.00634736 0.00322186 -0.5 -2.15 -0.8 -1.98785e-16 -1.3418e-15 3.18055e-15 -2.84217e-14 -7.75 -0.2 -34.8149 3.34351 2.50742 0 -3.8 0 -29.7769 0.0096377 0.00815496 1.42109e-14 -3.4 0 -21.9606 0.00322752 0.00232645 -0.75 -1.75 -1.85 -1.98785e-16 -1.3418e-15 3.18055e-15 0 -7.15 -1 -57.9273 0.922155 4.58466 0 -3 0 -0.000338077 4.77083e-15 -1.59028e-15 0 -2.35 0 1.76556e-31 3.18055e-15 -3.18055e-15 -5 17 -1.42109e-14 -2.85108 -3.15231 -3.98279 -6.45 -2.84217e-14 2.84217e-14 2.14289 6.45101 -0.214911 -6.45 0 1.42109e-14 -9.45171 -72.0053 11.2119 -2.84217e-14 -32.4 -2 15.2411 -48.3484 -8.06342 0 -25.65 2 -27.6012 -7.65718 3.95636 0.5 -1.5 2.65 3.92815 -21.4404 1.03059 -2.84217e-14 -3.8 3.7 0.23839 29.4462 -0.0451809 0 -3 2.7 0.0451142 16.7602 -0.0369324 2.84217e-14 -1.9 1.6 9.54166e-15 -3.18055e-15 1.59028e-15 0 -8.3 1.9 23.4669 7.75586 -1.81473 0 -4.5 0 15.2113 -0.00361518 0.00543069 -2.84217e-14 -3.4 0 12.6505 -0.004579 -0.000333855 0.25 -2.2 0.4 9.54166e-15 -3.18055e-15 1.59028e-15 0 -8.3 1 20.5141 6.83304 -1.4681 0 -4.65 -2.84217e-14 20.8503 0.00791144 -0.000520582 0 -3.3 -2.84217e-14 16.4408 0.00967064 -0.00289147 0.5 -2.15 -0.8 9.54166e-15 -3.18055e-15 1.59028e-15 0 -7.75 -0.2 15.0495 3.60763 -0.713177 -2.84217e-14 -3.8 0 23.4029 0.0168151 0.0039906 0 -3.4 0 18.0638 0.0098722 0.00335611 0.75 -1.75 -1.85 9.54166e-15 -3.18055e-15 1.59028e-15 0 -7.15 -1 11.075 1.87921 -0.38353 0 -3 0 16.258 0.00348242 0.00471809 0 -2.35 0 13.3792 0.00121958 -0.00125133 8 0 0 20.7759 -29.2703 27.201 0 -45 -1 -0.0569551 22.799 0.396669 0 -41 -2 -9.98375 -2.95001 -17.6912 -2.84217e-14 -7.5 12.5 3.03321e-21 -1.24301e-17 3.18055e-15 0 -1.35525e-20 4 3.74609 2.66152 0.00128514 -8 0 -1.42109e-14 -3.29184 -36.8079 -0.12133 0 -45 -1 -0.186209 21.8342 1.21684 2.84217e-14 -41 -2 5.45761 -0.525466 2.47014 -2.84217e-14 -7.5 12.5 1.51661e-21 -3.11532e-09 -0 -2.84217e-14 0 4 -5.10678 -1.72673 0.00668379 
-59.1621 90.2482 192.108 -10.8363 10.5174 38.0832 0 8 1.42109e-14 -2.41301 10.8946 -110.395 0 8 0 -11.9063 -3.93063 96.5137 0 8 -1.42109e-14 -0.875801 1.77888 26.4165 0 8 0 -0.626115 1.66262 8.01685 0 17 0 0.0938938 3.18971 -0.978669 0 10.8 0 0.305765 7.44452 -2.30067 5 17 -4.26326e-14 -5.1442 -2.12835 1.26887 6.45 0 1.42109e-14 0.507859 5.8083 -1.25331 6.45 -2.84217e-14 0 -13.4987 -65.2728 -22.7479 2.84217e-14 -32.4 -2 1.94422 -52.2693 15.9733 0 -25.65 2 41.6491 -12.0749 -12.1525 -0.5 -1.5 2.65 -5.11866 -18.711 -5.48444 0 -3.8 3.7 -0.0196688 33.8267 0.00689351 0 -3 2.7 0.00479756 33.2492 -0.0149224 0 -1.9 1.6 -1.98785e-16 1.83876e-15 -3.18055e-15 -2.84217e-14 -8.3 1.9 -38.6819 5.41597 2.37775 0 -4.5 0 -20.3795 0.0125435 0.000741697 -1.42109e-14 -3.4 0 -16.1359 0.0137858 -0.000649331 -0.25 -2.2 0.4 -1.98785e-16 9.44227e-16 -3.18055e-15 0 -8.3 1 -39.6167 3.13266 2.18685 0 -4.65 0 -11.3507 0.0207521 0.000824461 -2.84217e-14 -3.3 0 -9.83983 -0.00634736 0.00322186 -0.5 -2.15 -0.8 -1.98785e-16 9.44227e-16 -3.18055e-15 0 -7.75 -0.2 -34.966 3.3108 2.51452 0 -3.8 0 -29.7583 0.0096377 0.00815496 0 -3.4 0 -21.9494 0.00322752 0.00232645 -0.75 -1.75 -1.85 -1.98785e-16 9.44227e-16 -3.18055e-15 0 -7.15 -1 -57.8609 0.908887 4.56477 1.42109e-14 -3 0 -0.000338077 7.95139e-15 3.18055e-15 0 -2.35 2.84217e-14 3.18055e-15 3.18055e-15 -0 -5 17 -1.42109e-14 -2.80126 -3.13816 -3.79746 -6.45 0 0 2.14987 6.54891 -0.216133 -6.45 0 -1.42109e-14 -9.41526 -71.6086 11.0307 -2.84217e-14 -32.4 -2 15.4879 -48.3188 -7.70945 0 -25.65 2 -27.8294 -7.66434 4.20453 0.5 -1.5 2.65 3.94869 -21.5332 1.0691 0 -3.8 3.7 0.239366 29.6108 -0.0452545 0 -3 2.7 0.0450845 16.716 -0.0369238 2.84217e-14 -1.9 1.6 9.54166e-15 -2.38542e-15 -3.18055e-15 0 -8.3 1.9 23.4526 7.74469 -1.81571 2.84217e-14 -4.5 0 15.3978 -0.00361518 0.00543069 -2.84217e-14 -3.4 0 12.7813 -0.004579 -0.000333855 0.25 -2.2 0.4 9.54166e-15 -7.95139e-16 -3.18055e-15 0 -8.3 1 20.5199 6.81972 -1.46825 -2.84217e-14 -4.65 0 20.8272 0.00791144 -0.000520582 0 -3.3 0 16.4259 0.00967064 -0.00289147 0.5 -2.15 -0.8 9.54166e-15 -7.95139e-16 -3.18055e-15 0 -7.75 -0.2 15.0657 3.61166 -0.712859 0 -3.8 0 23.4653 0.0168151 0.0039906 0 -3.4 0 18.1029 0.0098722 0.00335611 0.75 -1.75 -1.85 9.54166e-15 -7.95139e-16 -3.18055e-15 0 -7.15 -1 11.101 1.86325 -0.384326 -2.84217e-14 -3 0 16.2622 0.00348242 0.00471809 0 -2.35 0 13.3802 0.00121958 -0.00125133 8 0 2.84217e-14 20.3537 -28.1942 27.0201 2.84217e-14 -45 -1 -0.0465653 21.8585 0.345264 0 -41 -2 -9.99201 -2.71324 -17.6979 2.84217e-14 -7.5 12.5 6.9001e-34 -1.24301e-17 3.18055e-15 0 0 4 3.71404 2.60669 0.00134578 -8 1.42109e-14 1.42109e-14 -3.35485 -35.7258 -0.205648 0 -45 -1 -0.171575 20.9902 1.16318 2.84217e-14 -41 -2 5.46719 -0.314687 2.65058 0 -7.5 12.5 1.51661e-21 -3.11532e-09 -0 0 -1.35525e-20 4 -5.09147 -1.7545 0.00668389 
